<?xml version="1.0" encoding="UTF-8" standalone="no"?>
<svg
   width="60"
   height="60"
   version="1.1"
   id="svg19"
   sodipodi:docname="logo-new-logo_only-60x60.svg"
   inkscape:version="1.4 (e7c3feb1, 2024-10-09)"
   xmlns:inkscape="http://www.inkscape.org/namespaces/inkscape"
   xmlns:sodipodi="http://sodipodi.sourceforge.net/DTD/sodipodi-0.dtd"
   xmlns="http://www.w3.org/2000/svg"
   xmlns:svg="http://www.w3.org/2000/svg">
  <sodipodi:namedview
     id="namedview1"
     pagecolor="#ffffff"
     bordercolor="#000000"
     borderopacity="0.25"
     inkscape:showpageshadow="2"
     inkscape:pageopacity="0.0"
     inkscape:pagecheckerboard="0"
     inkscape:deskcolor="#d1d1d1"
     inkscape:zoom="5.1493588"
     inkscape:cx="29.421139"
     inkscape:cy="38.548489"
     inkscape:window-width="1552"
     inkscape:window-height="946"
     inkscape:window-x="327"
     inkscape:window-y="317"
     inkscape:window-maximized="0"
     inkscape:current-layer="svg19" />
  <defs
     id="defs19" />
  <g
     inkscape:groupmode="layer"
     id="layer1"
     inkscape:label="bg"
     style="fill:#e90158;fill-opacity:1">
    <rect
       style="opacity:1;fill:#e90158;fill-opacity:1;stroke-width:0.803626"
       id="rect1"
       width="60"
       height="60"
       x="0"
       y="0"
       rx="4" />
  </g>
  <g
     id="g21"
     transform="matrix(0.07335834,0,0,0.07335834,-7.5921774,0.83549436)">
    <g
       id="g20"
       transform="scale(1.2886598)">
      <path
         fill="#fefefe"
         d="m 240.776,55.035 219.367,-0.063 65.849,-0.02 c 11.296,-0.003 23.419,-0.972 34.589,0.473 7.63,0.987 15.119,4.47 20.891,9.504 9.484,8.27 13.891,17.536 14.674,30.045 0.598,9.555 0.151,19.376 0.155,28.957 l 0.009,54.759 0.02,169.338 0.007,120.358 -0.006,36.139 c -0.005,6.703 0.422,13.801 -0.343,20.453 q -0.186,1.548 -0.488,3.078 -0.302,1.53 -0.718,3.033 -0.417,1.503 -0.946,2.97 -0.528,1.467 -1.166,2.89 -0.638,1.423 -1.382,2.794 -0.743,1.371 -1.588,2.682 -0.845,1.311 -1.786,2.554 -0.942,1.243 -1.974,2.412 c -9.541,10.697 -21.653,13.959 -35.504,14.733 -24.458,0.378 -48.977,-0.053 -73.44,-0.07 l -141.437,-0.103 -61.876,0.092 c -12.677,0.064 -26.201,1.058 -38.758,-0.669 q -1.53,-0.204 -3.04,-0.521 -1.51,-0.318 -2.992,-0.748 -1.482,-0.43 -2.927,-0.969 -1.446,-0.54 -2.847,-1.187 -1.401,-0.646 -2.75,-1.396 -1.349,-0.749 -2.638,-1.598 -1.288,-0.849 -2.51,-1.791 -1.221,-0.943 -2.369,-1.975 c -8.629,-7.646 -13.01,-16.511 -13.71,-28.02 -0.564,-9.253 -0.114,-18.732 -0.109,-28.011 l 0.048,-53.738 0.078,-167.125 -0.067,-123.488 -0.007,-38.3 c 0.005,-7.01 -0.398,-14.33 0.348,-21.293 0.907,-8.457 4.564,-16.095 10.24,-22.392 8.217,-9.116 19.064,-13.125 31.103,-13.787 z"
         id="path2" />
      <path
         fill="#e90158"
         d="m 241.146,77.495 c 4.483,-0.562 9.375,-0.225 13.908,-0.198 l 24.012,0.109 80.89,-0.066 123.756,0.126 44.826,-0.122 c 8.149,-0.018 16.442,-0.331 24.573,0.135 4.805,0.275 9.081,1.18 13.141,3.963 4.173,2.858 6.616,6.848 7.449,11.811 0.958,5.714 0.519,11.839 0.491,17.618 l -0.041,23.327 -0.011,88.669 -0.022,191.502 0.079,69.192 c -0.005,11.627 0.347,23.368 -0.126,34.979 -0.194,4.783 -0.927,9.19 -3.875,13.137 -3.493,4.677 -8.543,7.046 -14.2,7.835 l -207.945,-0.095 -72.487,-0.044 c -12.235,-0.011 -24.984,0.865 -37.141,-0.186 -3.851,-0.333 -7.438,-1.668 -10.542,-3.994 -3.602,-2.699 -5.636,-6.774 -6.267,-11.176 -0.773,-5.398 -0.326,-11.232 -0.3,-16.693 l 0.022,-27.836 -0.021,-100.246 -0.015,-187.592 -0.01,-61.384 c 0.002,-10.719 -0.404,-21.631 0.112,-32.326 0.245,-5.101 1.08,-9.058 4.319,-13.188 3.947,-5.034 9.39,-6.461 15.425,-7.257 z"
         id="path3"
         style="fill:#e90158;fill-opacity:1" />
    </g>
    <path
       fill="#fefefe"
       d="m 482.86211,242.26418 c 1.28351,-0.21263 2.61985,-0.22939 3.92011,-0.26676 10.52835,-0.30154 22.41752,4.7281 29.96778,12.02706 q 1.03866,1.00774 2.00644,2.08248 0.96908,1.07603 1.86212,2.21392 0.89433,1.13788 1.70876,2.33376 0.81443,1.19588 1.54768,2.4433 0.73196,1.24742 1.37887,2.54252 0.6469,1.29382 1.2036,2.62887 0.55799,1.33505 1.02449,2.7049 0.46649,1.36984 0.8402,2.76804 c 3.08635,11.6933 1.78866,25.30412 1.76676,37.34536 q -0.1598,23.42912 0.0747,46.85696 c 8.71521,-3.46392 17.22036,-4.4884 26.33376,-1.87629 11.95877,3.42912 19.51418,12.27577 25.22552,22.75644 10.70232,-4.45361 21.7616,-6.44716 33.02835,-2.62629 10.39691,3.52449 18.17912,12.03737 22.78995,21.77062 10.48969,-4.45361 20.8183,-6.40464 31.90592,-2.36598 8.95619,3.2616 16.77191,10.05026 20.71135,18.79124 1.97551,4.38531 2.82087,9.03351 3.26546,13.78608 1.15593,12.37629 0.22294,25.40851 0.22938,37.85567 0.0103,21.2165 1.34536,43.29768 -1.4317,64.33119 -1.36211,10.31314 -4.3866,20.65077 -8.13918,30.33376 -15.69716,40.50902 -50.08762,71.99871 -89.28866,89.1933 -28.28737,12.06701 -60.57474,15.98067 -90.68299,9.07474 q -1.92268,-0.45103 -3.83247,-0.94845 -1.91108,-0.49742 -3.80928,-1.04124 -1.89819,-0.5451 -3.78221,-1.13531 -1.88402,-0.5902 -3.75387,-1.22551 -1.86856,-0.6366 -3.72165,-1.31701 -1.85438,-0.6817 -3.68943,-1.40851 -1.83634,-0.72551 -3.65464,-1.49613 -1.81701,-0.77062 -3.61598,-1.58634 -1.79897,-0.81444 -3.57603,-1.67268 -1.77835,-0.85954 -3.5348,-1.76031 -1.75644,-0.90206 -3.49098,-1.84665 -1.73453,-0.9433 -3.44458,-1.92913 -1.71134,-0.98711 -3.39691,-2.01417 -1.68557,-1.02706 -3.34665,-2.09536 -1.65979,-1.06959 -3.29381,-2.17784 -1.63402,-1.10824 -3.24098,-2.25644 -1.60696,-1.1482 -3.18428,-2.33505 -1.57861,-1.18686 -3.12629,-2.41108 -1.54897,-1.22552 -3.06701,-2.48712 -1.51804,-1.26288 -3.00516,-2.56185 -1.48711,-1.29897 -2.94201,-2.63402 -1.45489,-1.33506 -2.87757,-2.70361 -1.42139,-1.37114 -2.80928,-2.77449 -1.38918,-1.40464 -2.74227,-2.84149 -1.35309,-1.43815 -2.67139,-2.90851 -1.3183,-1.47036 -2.60052,-2.97165 -1.28092,-1.50128 -2.52577,-3.03479 -1.24485,-1.53222 -2.45232,-3.09536 -1.20747,-1.56186 -2.37629,-3.15335 -1.16881,-1.5915 -2.29768,-3.21134 -1.13015,-1.61985 -2.21907,-3.26547 -1.09021,-1.6469 -2.13918,-3.31958 C 386.27577,558.9768 377.09149,523.58634 385.11727,490.52706 q 0.49613,-2.11211 1.08376,-4.19974 0.58634,-2.08892 1.26418,-4.14948 0.67783,-2.06057 1.44458,-4.08892 0.76547,-2.02964 1.61985,-4.0232 0.85438,-1.99484 1.79381,-3.94974 0.94073,-1.9549 1.96392,-3.86727 1.02449,-1.91237 2.13016,-3.77835 1.10695,-1.86598 2.29252,-3.6817 1.18686,-1.81572 2.45103,-3.57861 1.26418,-1.76289 2.6031,-3.46907 1.3402,-1.70619 2.75257,-3.35309 1.41237,-1.64562 2.89562,-3.22938 1.48325,-1.58248 3.03222,-3.10052 1.55026,-1.51675 3.16623,-2.96521 1.6147,-1.44845 3.28995,-2.82603 1.67655,-1.37629 3.41109,-2.67912 c 6.60051,-4.87629 13.99098,-8.88273 20.99871,-13.14691 q -0.20103,-48.9201 0.15077,-97.83505 c 0.0863,-13.98325 -1.2049,-31.94974 1.04124,-45.43428 1.1469,-6.88273 3.50773,-12.55541 7.7268,-18.12758 7.74356,-10.22938 18.14562,-15.02319 30.63273,-16.77963 z"
       id="path4"
       style="stroke-width:1.28866" />
    <path
       fill="#e90158"
       d="m 482.56959,261.62758 c 4.2152,-0.20103 8.49098,0.19974 12.33763,2.05799 4.76031,2.30025 8.9884,7.39046 10.26804,12.54897 2.08505,8.40979 0.78479,27.8969 0.76675,37.5451 l -0.0374,96.42783 c -0.006,16.69975 -0.85438,33.91109 0.13402,50.56057 0.1585,2.6701 0.46134,5.59407 1.50387,8.07217 1.17912,2.8067 4.05927,6.54897 7.00257,7.6817 2.3866,0.91752 5.48969,0.61469 7.73325,-0.57217 3.55284,-1.88015 5.45747,-5.93428 6.41495,-9.65464 2.93428,-11.39046 1.27319,-47.25902 1.25902,-60.89433 -0.008,-6.89819 -0.65206,-14.49742 1.70361,-21.08376 1.32732,-3.71263 3.71778,-7.30412 7.47422,-8.88402 4.05026,-1.70619 9.5348,-1.04639 13.48196,0.63789 4.18428,1.78737 7.01547,4.92912 8.62371,9.16108 3.06315,8.06057 2.15207,52.61727 2.20748,64.5567 0.0309,6.5335 -1.00773,14.50902 1.58892,20.60052 1.13659,2.66881 3.07345,5.43943 5.89819,6.49484 2.06186,0.77062 4.06959,0.50387 6.02578,-0.4317 3.56958,-1.70876 6.02061,-4.77964 7.1817,-8.53737 1.52835,-4.94588 1.01804,-10.4549 0.94716,-15.56701 -0.15335,-11.04124 -2.11211,-39.00129 1.26547,-48.02578 1.59922,-4.2719 4.52835,-7.64046 8.76288,-9.44587 3.84536,-1.63918 8.31701,-0.99098 12.10309,0.53995 20.77707,8.40592 5.36727,58.73067 12.93944,76.23582 1.21907,2.81701 3.24355,5.14175 6.21392,6.13016 2.62242,0.87242 5.47422,0.97938 7.89561,-0.4781 7.8415,-4.72165 3.35696,-39.57216 5.20232,-49.39819 1.22938,-6.55155 4.33506,-11.0799 9.87371,-14.70232 l 0.71908,-0.46134 c 2.39046,-0.0567 4.87629,-0.10825 7.24871,0.17139 q 0.86082,0.10438 1.70618,0.29381 0.84536,0.18944 1.66753,0.46263 0.82216,0.2732 1.6134,0.62758 0.79124,0.35438 1.54253,0.78608 0.75129,0.4317 1.45489,0.93686 0.7049,0.50515 1.35567,1.07861 0.64949,0.57216 1.2397,1.20747 0.58891,0.63531 1.11211,1.32603 c 2.48453,3.25773 3.16495,7.37887 3.65206,11.35438 1.45232,11.84665 0.35696,25 0.33505,36.98969 -0.0309,17.31959 1.26547,36.33248 -0.86598,53.37758 -0.73711,5.60438 -1.70618,11.08505 -3.18428,16.54768 -9.50902,35.13402 -32.63788,64.15335 -64.24484,82.13145 -30.60052,17.40592 -65.94201,23.15206 -100.11598,13.64561 -34.61727,-9.63015 -65.64046,-33.31185 -83.09407,-64.82474 -13.32603,-24.06185 -18.66753,-53.32732 -10.83248,-80.07474 5.27964,-18.02577 15.40335,-33.73196 32.16237,-42.85696 -0.0747,9.26675 -1.07087,51.02577 0.7049,56.82088 0.70232,2.2951 3.59021,4.43428 5.67397,5.40464 3.28737,1.53092 7.28737,1.68299 10.62887,0.23067 3.32216,-1.44201 5.50257,-4.3982 6.36726,-7.86212 2.20104,-8.80412 0.66495,-31.75773 0.66366,-42.43685 l 0.0503,-118.51804 c 0.0193,-18.47939 -1.09536,-37.59923 0.0683,-55.99356 0.25644,-4.05284 0.85696,-8.24356 2.53093,-11.97294 2.64948,-5.90335 7.39433,-7.85309 13.0683,-9.96778 z"
       id="path5"
       style="stroke-width:1.28866" />
    <path
       fill="#fefefe"
       d="m 502.77062,165.63789 c 5.59794,-0.59794 11.69587,-0.31701 17.34794,-0.2165 45.55154,0.80928 104.55154,20.37629 136.65721,53.55413 -1.60051,-8.86341 -3.75773,-19.04511 -2.07989,-28.02964 0.51933,-2.78093 1.66108,-5.9433 4.20876,-7.48583 2.53222,-1.5335 5.75,-2.29639 8.65979,-1.57087 2.92913,0.73195 5.19975,2.84793 6.72165,5.38273 1.26289,2.1018 2.03351,4.42525 2.52191,6.8183 1.63402,8.00902 4.71134,43.84665 2.64562,50.71907 -0.44201,1.47294 -2.13016,2.51933 -3.47036,3.2152 -4.99485,2.59537 -11.28351,3.56186 -16.61598,5.50258 -9.89949,3.60309 -19.92526,8.72809 -30.07603,11.2951 -2.61985,0.66238 -5.27835,1.28222 -7.89304,0.2732 -3.05928,-1.1817 -5.66753,-4.0116 -6.77835,-7.07861 -0.75258,-2.07989 -0.61083,-4.22036 0.38917,-6.19201 4.1817,-8.24742 18.44459,-11.68041 26.63402,-14.58763 q -1.22423,-1.58763 -2.62113,-3.02706 C 611.34536,205.8866 561.90335,190.3067 522.54253,189.80284 q -8.13274,-0.0967 -16.2616,0.16108 c -41.2049,1.53479 -94.60825,16.32474 -123.34794,47.22938 7.06701,2.21134 16.39433,4.73454 22.26804,9.25644 q 0.44201,0.33377 0.84794,0.71263 0.40593,0.37758 0.77062,0.79639 0.3634,0.41753 0.68299,0.87114 0.31958,0.45232 0.5902,0.93685 0.27062,0.48325 0.49098,0.99227 0.21908,0.50902 0.38531,1.03866 0.16624,0.52835 0.27578,1.07217 0.11082,0.54381 0.16494,1.09536 c 0.30284,2.93943 -0.45876,6.26159 -2.38788,8.5567 -1.63531,1.94587 -3.90722,3.07732 -6.44588,3.17397 -7.89819,0.30154 -32.42397,-10.79382 -41.18685,-13.96779 -3.32604,-1.20489 -6.91366,-1.87242 -10.16238,-3.22036 -1.21907,-0.50644 -2.26417,-1.14562 -3.15979,-2.12758 -2.79768,-3.06829 -1.6018,-12.88659 -1.29897,-16.8853 0.74098,-9.78866 1.17912,-29.4665 4.21005,-38.00645 1.0683,-3.0116 2.88016,-5.96134 5.39176,-7.97938 1.94458,-1.56314 4.02835,-2.15593 6.49613,-1.75773 2.77835,0.44845 6.16495,2.92912 7.52964,5.36469 4.45361,7.9433 0.75902,24.36211 -1.54253,32.69072 35.86469,-35.19716 87.17526,-49.76675 135.91753,-54.16881 z"
       id="path6"
       style="stroke-width:1.28866" />
  </g>
</svg>
